#!OML:ASF X:\für Bonn\!DataBase\2005_08_12_Daniel\c3d\Daniel.ASF
:FULLY-SPECIFIED
:DEGREES
279
root 2.77991 17.6803 17.3708 -4.32934 8.72213 0.147874
lowerback 4.73971 -0.906932 0.128739
upperback 1.96517 -1.23561 -3.71266
thorax -0.721105 -0.604336 -3.83123
lowerneck 3.49266 -6.8848 -7.06383
upperneck 17.8755 -10.2233 6.43174
head 5.51219 -5.10995 2.75739
rclavicle 1.16786e-014 7.95139e-016
rhumerus -36.2143 2.87999 -82.5966
rradius 119.332
rwrist -38.5781
rhand -6.84756 14.8993
rfingers 7.12502
rthumb 19.0174 -14.1909
lclavicle 1.16786e-014 7.95139e-016
lhumerus -35.877 34.7854 66.9676
lradius 19.1299
lwrist -35.4801
lhand -9.22975 -5.488
lfingers 7.12502
lthumb 16.7253 23.8115
rfemur 8.48899 21.423 21.7716
rtibia 13.8555
rfoot -25.6397 -27.4222
rtoes -11.5049
lfemur 1.15817 -15.8363 -20.1796
ltibia 25.599
lfoot -22.0908 11.7413
ltoes -12.0616
280
root 2.77973 17.6808 17.3684 -4.32583 8.56592 0.134606
lowerback 4.73039 -0.972066 0.0923276
upperback 1.98885 -1.32274 -3.65427
thorax -0.695366 -0.647914 -3.74544
lowerneck 3.47776 -6.88455 -7.11314
upperneck 18.038 -10.2309 6.42194
head 5.56846 -5.11633 2.7596
rclavicle -7.82715e-015 5.56597e-015
rhumerus -37.3306 2.6914 -83.453
rradius 119.429
rwrist -38.677
rhand -6.89923 15.1817
rfingers 7.12502
rthumb 18.9677 -13.9135
lclavicle -7.82715e-015 5.56597e-015
lhumerus -35.7604 34.4587 67.3331
lradius 19.2654
lwrist -35.029
lhand -9.25595 -5.45848
lfingers 7.12502
lthumb 16.7 23.8432
rfemur 8.44491 21.5371 21.7848
rtibia 13.8671
rfoot -25.5871 -27.3995
rtoes -11.5218
lfemur 1.18481 -15.8285 -20.1849
ltibia 25.5886
lfoot -22.1231 11.8781
ltoes -12.0415
281
root 2.77965 17.6812 17.366 -4.33501 8.44295 0.120483
lowerback 4.74388 -1.04431 0.0547097
upperback 2.00695 -1.41986 -3.58176
thorax -0.688068 -0.69676 -3.64343
lowerneck 3.47485 -6.87744 -7.18301
upperneck 18.1941 -10.2256 6.39171
head 5.62002 -5.11917 2.75997
rclavicle -2.72087e-014 -1.59028e-014
rhumerus -38.4472 2.54356 -84.2726
rradius 119.508
rwrist -38.7699
rhand -7.04468 15.4546
rfingers 7.12502
rthumb 18.8278 -13.6542
lclavicle -2.72087e-014 -1.59028e-014
lhumerus -35.6369 34.0076 67.7973
lradius 19.4357
lwrist -34.3907
lhand -9.29263 -5.35387
lfingers 7.12502
lthumb 16.6647 23.9508
rfemur 8.41511 21.6453 21.8079
rtibia 13.8857
rfoot -25.567 -27.3953
rtoes -11.5852
lfemur 1.21111 -15.7629 -20.1701
ltibia 25.5743
lfoot -22.1334 11.9278
ltoes -12.0326
282
root 2.77967 17.681 17.3638 -4.33411 8.29086 0.121922
lowerback 4.73993 -1.11317 0.0307761
upperback 2.01639 -1.51213 -3.54059
thorax -0.680419 -0.743125 -3.58222
lowerneck 3.49999 -6.86265 -7.27623
upperneck 18.3472 -10.2218 6.4277
head 5.67036 -5.12151 2.78599
rclavicle -3.86885e-014 -7.55382e-014
rhumerus -39.5819 2.42148 -85.1373
rradius 119.61
rwrist -38.893
rhand -7.22643 15.7203
rfingers 7.12502
rthumb 18.653 -13.4054
lclavicle -3.86885e-014 -7.55382e-014
lhumerus -35.5633 33.6961 68.1046
lradius 19.5528
lwrist -33.9213
lhand -9.34927 -5.37045
lfingers 7.12502
lthumb 16.6102 23.9388
rfemur 8.36729 21.7152 21.7922
rtibia 13.9032
rfoot -25.5059 -27.333
rtoes -11.6117
lfemur 1.24754 -15.7526 -20.1939
ltibia 25.5606
lfoot -22.1664 12.0609
ltoes -12.0133
283
root 2.77927 17.6814 17.3616 -4.32043 8.15177 0.111056
lowerback 4.72369 -1.18374 -0.00592463
upperback 2.02464 -1.60676 -3.47146
thorax -0.665941 -0.79076 -3.48494
lowerneck 3.55056 -6.84727 -7.37492
upperneck 18.4467 -10.2085 6.42149
head 5.69735 -5.12278 2.80169
rclavicle 1.20762e-014 1.66979e-014
rhumerus -40.6666 2.37182 -85.9034
rradius 119.686
rwrist -39.0118
rhand -7.41905 15.9821
rfingers 7.12502
rthumb 18.4678 -13.1612
lclavicle 1.20762e-014 1.66979e-014
lhumerus -35.5276 33.5546 68.3821
lradius 19.6742
lwrist -33.6291
lhand -9.375 -5.36409
lfingers 7.12502
lthumb 16.5854 23.9472
rfemur 8.31413 21.8229 21.8032
rtibia 13.9226
rfoot -25.4672 -27.3169
rtoes -11.6261
lfemur 1.26703 -15.7611 -20.1992
ltibia 25.5441
lfoot -22.1962 12.1969
ltoes -11.993
